<?xml version="1.0" encoding="UTF-8" standalone="no"?>
<!-- Created with Inkscape (http://www.inkscape.org/) -->

<svg
   xmlns:dc="http://purl.org/dc/elements/1.1/"
   xmlns:cc="http://creativecommons.org/ns#"
   xmlns:rdf="http://www.w3.org/1999/02/22-rdf-syntax-ns#"
   xmlns:svg="http://www.w3.org/2000/svg"
   xmlns="http://www.w3.org/2000/svg"
   xmlns:sodipodi="http://sodipodi.sourceforge.net/DTD/sodipodi-0.dtd"
   xmlns:inkscape="http://www.inkscape.org/namespaces/inkscape"
   width="277.42822mm"
   height="140.93719mm"
   viewBox="0 0 277.42822 140.93719"
   version="1.1"
   id="svg8"
   sodipodi:docname="hive_logo.svg"
   inkscape:version="0.92.4 (5da689c313, 2019-01-14)">
  <defs
     id="defs2" />
  <sodipodi:namedview
     id="base"
     pagecolor="#ffffff"
     bordercolor="#666666"
     borderopacity="1.0"
     inkscape:pageopacity="0.0"
     inkscape:pageshadow="2"
     inkscape:zoom="0.18756599"
     inkscape:cx="398.21588"
     inkscape:cy="-191.11891"
     inkscape:document-units="mm"
     inkscape:current-layer="text1001"
     showgrid="false"
     inkscape:window-width="1366"
     inkscape:window-height="705"
     inkscape:window-x="-8"
     inkscape:window-y="-8"
     inkscape:window-maximized="1">
    <inkscape:grid
       type="xygrid"
       id="grid874"
       originx="96.736475"
       originy="-235.97859" />
  </sodipodi:namedview>
  <metadata
     id="metadata5">
    <rdf:RDF>
      <cc:Work
         rdf:about="">
        <dc:format>image/svg+xml</dc:format>
        <dc:type
           rdf:resource="http://purl.org/dc/dcmitype/StillImage" />
      </cc:Work>
    </rdf:RDF>
  </metadata>
  <g
     inkscape:label="Layer 1"
     inkscape:groupmode="layer"
     id="layer1"
     transform="translate(96.736483,79.915792)">
    <g
       aria-label="hive"
       style="font-style:normal;font-variant:normal;font-weight:bold;font-stretch:normal;font-size:10.58333302px;line-height:1.25;font-family:Merriweather;-inkscape-font-specification:'Merriweather Bold';letter-spacing:-1.81239581px;word-spacing:0px;fill:#000000;fill-opacity:1;stroke:none;stroke-width:0.26458332"
       id="text1001">
      <g
         id="g1253"
         transform="matrix(7.9013752,0,0,7.9828355,682.16422,-420.98669)">
        <rect
           y="42.913033"
           x="-98.390366"
           height="17.280029"
           width="34.736385"
           id="rect1213"
           style="opacity:1;fill:#13435e;fill-opacity:1;stroke:#13435e;stroke-width:0.375;stroke-linejoin:round;stroke-miterlimit:4;stroke-dasharray:none;stroke-dashoffset:0;stroke-opacity:1" />
        <path
           inkscape:connector-curvature="0"
           id="path1003-5"
           style="font-style:normal;font-variant:normal;font-weight:bold;font-stretch:normal;font-size:10.58333302px;line-height:1.25;font-family:Merriweather;-inkscape-font-specification:'Merriweather Bold';letter-spacing:-0.73554164px;word-spacing:0px;fill:#000000;fill-opacity:1;stroke:#ffffff;stroke-width:1.39999998;stroke-linejoin:round;stroke-miterlimit:4;stroke-dasharray:none;stroke-opacity:1"
           d="m -90.323639,48.960803 -0.80433,-0.137583 v -0.5715 l 1.9685,-0.232834 h 0.0318 l 0.27516,0.201084 0.0106,2.360084 -0.0741,0.920749 q 0.32809,-0.296333 0.889,-0.550333 0.5715,-0.254 1.19592,-0.254 0.66675,0 1.03717,0.254 0.37041,0.243416 0.51858,0.751416 0.14817,0.508 0.14817,1.354667 v 2.910416 l 0.67733,0.09525 v 0.635 h -2.78342 v -0.635 l 0.61384,-0.09525 v -2.910416 q 0,-0.550333 -0.0741,-0.85725 -0.0741,-0.306917 -0.27516,-0.455083 -0.1905,-0.148167 -0.5715,-0.148167 -0.32809,0 -0.67734,0.15875 -0.33866,0.148167 -0.60325,0.359833 v 3.852333 l 0.64559,0.09525 v 0.635 h -2.74109 v -0.635 l 0.59267,-0.08467 z" />
        <path
           inkscape:connector-curvature="0"
           id="path1005-1"
           style="font-style:normal;font-variant:normal;font-weight:bold;font-stretch:normal;font-size:10.58333302px;line-height:1.25;font-family:Merriweather;-inkscape-font-specification:'Merriweather Bold';letter-spacing:-0.73554164px;word-spacing:0px;fill:#000000;fill-opacity:1;stroke:#ffffff;stroke-width:1.39999998;stroke-linejoin:round;stroke-miterlimit:4;stroke-dasharray:none;stroke-opacity:1"
           d="m -83.207179,49.849804 q -0.381,0 -0.60325,-0.222251 -0.22225,-0.22225 -0.22225,-0.5715 0,-0.402167 0.254,-0.66675 0.254,-0.264583 0.67734,-0.264583 0.42333,0 0.64558,0.232833 0.22225,0.22225 0.22225,0.560917 0,0.423333 -0.254,0.677333 -0.254,0.254001 -0.70908,0.254001 z m -0.56091,1.968499 -0.75142,-0.201083 v -0.709084 l 1.93675,-0.232832 h 0.0212 l 0.29633,0.211666 v 5.090582 l 0.70908,0.08467 v 0.635 h -2.95275 v -0.635 l 0.74084,-0.09525 z" />
        <path
           inkscape:connector-curvature="0"
           id="path1003"
           style="font-style:normal;font-variant:normal;font-weight:bold;font-stretch:normal;font-family:Merriweather;-inkscape-font-specification:'Merriweather Bold';letter-spacing:-0.73554164px;fill:#111111;fill-opacity:1;stroke-width:0.26458332;stroke-linejoin:round"
           d="m -90.323639,48.960804 -0.80433,-0.137584 v -0.5715 l 1.9685,-0.232833 h 0.0318 l 0.27516,0.201083 0.0106,2.360084 -0.0741,0.920749 q 0.32809,-0.296333 0.889,-0.550333 0.5715,-0.254 1.19592,-0.254 0.66675,0 1.03717,0.254 0.37041,0.243417 0.51858,0.751417 0.14817,0.508 0.14817,1.354666 v 2.910417 l 0.67733,0.09525 v 0.635 h -2.78342 v -0.635 l 0.61384,-0.09525 v -2.910417 q 0,-0.550333 -0.0741,-0.85725 -0.0741,-0.306916 -0.27516,-0.455083 -0.1905,-0.148167 -0.5715,-0.148167 -0.32809,0 -0.67734,0.15875 -0.33866,0.148167 -0.60325,0.359834 v 3.852333 l 0.64559,0.09525 v 0.635 h -2.74109 v -0.635 l 0.59267,-0.08467 z" />
        <path
           inkscape:connector-curvature="0"
           id="path1007-4"
           style="font-style:normal;font-variant:normal;font-weight:bold;font-stretch:normal;font-size:10.58333302px;line-height:1.25;font-family:Merriweather;-inkscape-font-specification:'Merriweather Bold';letter-spacing:-0.73554164px;word-spacing:0px;fill:#000000;fill-opacity:1;stroke:#ffffff;stroke-width:1.39999998;stroke-linejoin:round;stroke-miterlimit:4;stroke-dasharray:none;stroke-opacity:1"
           d="m -82.062519,50.812886 h 2.794 v 0.613834 l -0.6985,0.137583 0.96308,2.878666 0.33867,1.121833 0.28575,-1.090083 0.94191,-2.910416 -0.66675,-0.137583 v -0.613834 h 2.32834 v 0.613834 l -0.55034,0.137583 -1.9685,5.217583 h -1.22766 l -2.10609,-5.217583 -0.43391,-0.137583 z" />
        <path
           inkscape:connector-curvature="0"
           id="path1005"
           style="font-style:normal;font-variant:normal;font-weight:bold;font-stretch:normal;font-family:Merriweather;-inkscape-font-specification:'Merriweather Bold';letter-spacing:-0.73554164px;fill:#111111;fill-opacity:1;stroke-width:0.26458332;stroke-linejoin:round"
           d="m -83.207179,49.849804 q -0.381,0 -0.60325,-0.22225 -0.22225,-0.22225 -0.22225,-0.5715 0,-0.402167 0.254,-0.66675 0.254,-0.264584 0.67734,-0.264584 0.42333,0 0.64558,0.232834 0.22225,0.22225 0.22225,0.560916 0,0.423334 -0.254,0.677334 -0.254,0.254 -0.70908,0.254 z m -0.56091,1.968499 -0.75142,-0.201083 v -0.709083 l 1.93675,-0.232833 h 0.0212 l 0.29633,0.211666 v 5.090583 l 0.70908,0.08467 v 0.635 h -2.95275 v -0.635 l 0.74084,-0.09525 z" />
        <path
           inkscape:connector-curvature="0"
           id="path1009-2"
           style="font-style:normal;font-variant:normal;font-weight:bold;font-stretch:normal;font-size:10.58333302px;line-height:1.25;font-family:Merriweather;-inkscape-font-specification:'Merriweather Bold';letter-spacing:-0.73554164px;word-spacing:0px;fill:#000000;fill-opacity:1;stroke:#ffffff;stroke-width:1.39999998;stroke-linejoin:round;stroke-miterlimit:4;stroke-dasharray:none;stroke-opacity:1"
           d="m -73.555509,56.813636 q -1.397,0 -2.08491,-0.814917 -0.67734,-0.8255 -0.67734,-2.243666 0,-0.9525 0.34925,-1.651 0.35984,-0.6985 1.00542,-1.068917 0.64558,-0.370416 1.49225,-0.370416 1.05833,0 1.62983,0.560916 0.5715,0.550334 0.59267,1.576917 0,0.6985 -0.0847,1.037167 h -3.43958 q 0.0423,0.963082 0.45508,1.502832 0.41275,0.529167 1.17475,0.529167 0.41275,0 0.84667,-0.137583 0.4445,-0.137584 0.6985,-0.328084 l 0.26458,0.582084 q -0.28575,0.306916 -0.93133,0.5715 -0.635,0.254 -1.29117,0.254 z m 0.8255,-3.608916 q 0.0212,-0.296334 0.0212,-0.455084 0,-1.407583 -0.94192,-1.407583 -0.51858,0 -0.80433,0.41275 -0.28575,0.41275 -0.3175,1.449917 z" />
        <path
           inkscape:connector-curvature="0"
           id="path1007"
           style="font-style:normal;font-variant:normal;font-weight:bold;font-stretch:normal;font-family:Merriweather;-inkscape-font-specification:'Merriweather Bold';letter-spacing:-0.73554164px;fill:#111111;fill-opacity:1;stroke-width:0.26458332;stroke-linejoin:round"
           d="m -82.062519,50.812887 h 2.794 v 0.613833 l -0.6985,0.137583 0.96308,2.878667 0.33867,1.121833 0.28575,-1.090083 0.94191,-2.910417 -0.66675,-0.137583 v -0.613833 h 2.32834 v 0.613833 l -0.55034,0.137583 -1.9685,5.217584 h -1.22766 l -2.10609,-5.217584 -0.43391,-0.137583 z" />
        <path
           inkscape:connector-curvature="0"
           id="path1009"
           style="font-style:normal;font-variant:normal;font-weight:bold;font-stretch:normal;font-family:Merriweather;-inkscape-font-specification:'Merriweather Bold';letter-spacing:-0.73554164px;fill:#111111;fill-opacity:1;stroke-width:0.26458332;stroke-linejoin:round"
           d="m -73.555509,56.813637 q -1.397,0 -2.08491,-0.814917 -0.67734,-0.8255 -0.67734,-2.243667 0,-0.9525 0.34925,-1.651 0.35984,-0.6985 1.00542,-1.068916 0.64558,-0.370417 1.49225,-0.370417 1.05833,0 1.62983,0.560917 0.5715,0.550333 0.59267,1.576916 0,0.6985 -0.0847,1.037167 h -3.43958 q 0.0423,0.963083 0.45508,1.502833 0.41275,0.529167 1.17475,0.529167 0.41275,0 0.84667,-0.137583 0.4445,-0.137584 0.6985,-0.328084 l 0.26458,0.582084 q -0.28575,0.306916 -0.93133,0.5715 -0.635,0.254 -1.29117,0.254 z m 0.8255,-3.608917 q 0.0212,-0.296333 0.0212,-0.455083 0,-1.407584 -0.94192,-1.407584 -0.51858,0 -0.80433,0.41275 -0.28575,0.41275 -0.3175,1.449917 z" />
        <ellipse
           ry="0.70192999"
           rx="0.59068346"
           cy="48.959419"
           cx="-82.940453"
           id="path1027"
           style="opacity:1;fill:#f5c843;fill-opacity:1;stroke:none;stroke-width:0.07564127;stroke-linejoin:round;stroke-miterlimit:4;stroke-dasharray:none;stroke-opacity:1" />
        <path
           sodipodi:nodetypes="cccccccc"
           inkscape:connector-curvature="0"
           d="m -82.089762,48.056328 c 0,0 1.697203,-1.496759 3.434463,-0.294046 l 1.73725,1.202713 c 0,0 1.677148,0.560238 2.579178,-0.642475 0.90204,-1.202713 0.726039,-2.529112 0.726039,-2.529112 0,0 -1.084079,-2.912691 -2.520649,-0.908169 -1.43658,2.004521 1.520131,3.28632 1.520131,3.28632 0,0 2.038919,1.510936 3.223399,-1.169724"
           style="fill:none;stroke:#000000;stroke-width:0.175;stroke-linecap:butt;stroke-linejoin:miter;stroke-miterlimit:4;stroke-dasharray:0.35, 0.175;stroke-dashoffset:0;stroke-opacity:1"
           id="path1150" />
        <ellipse
           ry="0.3740457"
           rx="0.45976448"
           cy="52.249432"
           cx="-73.710381"
           id="path1187"
           style="opacity:1;fill:#ffffff;fill-opacity:1;stroke:none;stroke-width:1.39999998;stroke-linejoin:round;stroke-miterlimit:4;stroke-dasharray:none;stroke-dashoffset:0;stroke-opacity:1" />
        <ellipse
           ry="0.78705454"
           rx="0.57665378"
           cy="52.428661"
           cx="-78.674278"
           id="path1189"
           style="opacity:1;fill:#ffffff;fill-opacity:1;stroke:none;stroke-width:1.51718831;stroke-linejoin:round;stroke-miterlimit:4;stroke-dasharray:none;stroke-dashoffset:0;stroke-opacity:1" />
        <rect
           y="51.987614"
           x="-88.399467"
           height="3.6282275"
           width="1.2000632"
           id="rect1191"
           style="opacity:1;fill:#ffffff;fill-opacity:1;stroke:none;stroke-width:1.4636215;stroke-linejoin:round;stroke-miterlimit:4;stroke-dasharray:none;stroke-dashoffset:0;stroke-opacity:1" />
      </g>
    </g>
  </g>
  <g
     inkscape:groupmode="layer"
     id="layer2"
     inkscape:label="Layer 2"
     transform="translate(96.736483,79.915792)" />
</svg>
